<svg width="187" height="103" viewBox="0 0 187 103" fill="none" xmlns="http://www.w3.org/2000/svg">
<path fill-rule="evenodd" clip-rule="evenodd" d="M120.447 10.3636C123.356 12.2727 125.015 14.9545 125.424 18.4091H133.606C133.492 14.8864 132.401 11.7386 130.333 8.96591C128.288 6.19318 125.515 4.01136 122.015 2.42045C118.515 0.806818 114.515 0 110.015 0C105.56 0 101.526 0.818182 97.9127 2.45455C94.3217 4.06818 91.4581 6.34091 89.3217 9.27273C87.2081 12.1818 86.1513 15.5909 86.1513 19.5C86.1513 24.2045 87.7422 28.0114 90.924 30.9205C94.1058 33.8295 98.424 36.0682 103.879 37.6364L112.469 40.0909C114.924 40.7727 117.208 41.5682 119.322 42.4773C121.435 43.3864 123.14 44.5682 124.435 46.0227C125.731 47.4773 126.379 49.3636 126.379 51.6818C126.379 54.2273 125.629 56.4545 124.129 58.3636C122.629 60.25 120.594 61.7273 118.026 62.7955C115.458 63.8409 112.56 64.3636 109.333 64.3636C106.56 64.3636 103.969 63.9545 101.56 63.1364C99.174 62.2955 97.1967 61.0227 95.6286 59.3182C94.0831 57.5909 93.1967 55.4091 92.9695 52.7727H84.2422C84.3799 54.7004 84.7464 56.5094 85.3418 58.1996L67.1761 8.72722L64.7727 2.18176H56.0455L0 2.18177V9.68177H21.9545V72H30.4091L39.2727 71.9999L46.2918 52.2272H74.5264L81.5455 71.9999H90.4091L85.5133 58.6667C86.0796 60.1479 86.8264 61.5356 87.7536 62.8295C89.8445 65.7159 92.7081 67.9659 96.3445 69.5796C100.004 71.1932 104.333 72 109.333 72C114.697 72 119.254 71.1023 123.004 69.3068C126.776 67.5114 129.64 65.0909 131.594 62.0455C133.572 59 134.56 55.5909 134.56 51.8182V72.2728H143.015V49.6364L151.742 39.8182L176.015 72.2728H186.242L156.924 33.9546L186.242 2.45457H175.197L143.833 37.091H143.015V2.45457H134.56V51.8182C134.56 48.5455 133.89 45.7841 132.549 43.5341C131.208 41.2841 129.504 39.4432 127.435 38.0114C125.39 36.5568 123.242 35.4091 120.992 34.5682C118.765 33.7273 116.742 33.0682 114.924 32.5909L107.833 30.6818C106.538 30.3409 105.117 29.8977 103.572 29.3523C102.026 28.7841 100.549 28.0682 99.1399 27.2045C97.7308 26.3182 96.5717 25.2159 95.6627 23.8977C94.7763 22.5568 94.3331 20.9545 94.3331 19.0909C94.3331 16.8636 94.9695 14.875 96.2422 13.125C97.5377 11.375 99.3331 10 101.629 9C103.947 8 106.651 7.5 109.742 7.5C113.969 7.5 117.538 8.45455 120.447 10.3636ZM53.5118 9.08198L30.4091 72V9.68177L53.5118 9.08198ZM60.6818 13.2272L71.864 44.7272H48.9542L60.1364 13.2272H60.6818ZM31.6108 74.3636H21.5199L20.9744 103H28.8835V86H29.5654L97.145 103H100.145L177.898 86H178.58L177.898 103H185.808L186.353 74.3636H176.262L99.4212 91.1364H98.603L31.6108 74.3636Z" fill="black"/>
</svg>
