<svg width="253" height="161" viewBox="0 0 253 161" fill="none" xmlns="http://www.w3.org/2000/svg">
<rect width="253" height="161" fill="white"/>
<path d="M35 35.6818V28.1818L99.7727 28.1818L102.176 34.7272L65.4091 35.6818V98H56.9545V35.6818H35Z" fill="black"/>
<path d="M74.2727 97.9999L65.4091 98L91.0455 28.1818H99.7727L125.409 97.9999H116.545L95.6818 39.2272H95.1364L74.2727 97.9999ZM77.5455 70.7272H113.273V78.2272H77.5455V70.7272Z" fill="black"/>
<path d="M160.424 44.4091C160.015 40.9545 158.356 38.2727 155.447 36.3636C152.538 34.4545 148.969 33.5 144.742 33.5C141.651 33.5 138.947 34 136.629 35C134.333 36 132.538 37.375 131.242 39.125C129.969 40.875 129.333 42.8636 129.333 45.0909C129.333 46.9545 129.776 48.5568 130.663 49.8977C131.572 51.2159 132.731 52.3182 134.14 53.2045C135.549 54.0682 137.026 54.7841 138.572 55.3523C140.117 55.8977 141.538 56.3409 142.833 56.6818L149.924 58.5909C151.742 59.0682 153.765 59.7273 155.992 60.5682C158.242 61.4091 160.39 62.5568 162.435 64.0114C164.504 65.4432 166.208 67.2841 167.549 69.5341C168.89 71.7841 169.56 74.5455 169.56 77.8182C169.56 81.5909 168.572 85 166.594 88.0455C164.64 91.0909 161.776 93.5114 158.004 95.3068C154.254 97.1023 149.697 98 144.333 98C139.333 98 135.004 97.1932 131.344 95.5796C127.708 93.9659 124.844 91.7159 122.754 88.8295C120.685 85.9432 119.515 82.5909 119.242 78.7727H127.969C128.197 81.4091 129.083 83.5909 130.629 85.3182C132.197 87.0227 134.174 88.2955 136.56 89.1364C138.969 89.9545 141.56 90.3636 144.333 90.3636C147.56 90.3636 150.458 89.8409 153.026 88.7955C155.594 87.7273 157.629 86.25 159.129 84.3636C160.629 82.4545 161.379 80.2273 161.379 77.6818C161.379 75.3636 160.731 73.4773 159.435 72.0227C158.14 70.5682 156.435 69.3864 154.322 68.4773C152.208 67.5682 149.924 66.7727 147.469 66.0909L138.879 63.6364C133.424 62.0682 129.106 59.8295 125.924 56.9205C122.742 54.0114 121.151 50.2045 121.151 45.5C121.151 41.5909 122.208 38.1818 124.322 35.2727C126.458 32.3409 129.322 30.0682 132.913 28.4545C136.526 26.8182 140.56 26 145.015 26C149.515 26 153.515 26.8068 157.015 28.4205C160.515 30.0114 163.288 32.1932 165.333 34.9659C167.401 37.7386 168.492 40.8864 168.606 44.4091H160.424Z" fill="black"/>
<path d="M169.56 98.2728V28.4546H178.015V63.091H178.833L210.197 28.4546H221.242L191.924 59.9546L221.242 98.2728H211.015L186.742 65.8182L178.015 75.6364V98.2728H169.56Z" fill="black"/>
<path d="M56.5199 100.364H66.6108L133.603 117.136H134.421L211.262 100.364H221.353L220.808 129H212.898L213.58 112H212.898L135.145 129H132.145L64.5654 112H63.8835V129H55.9744L56.5199 100.364Z" fill="black"/>
</svg>
