<svg width="187" height="103" viewBox="0 0 187 103" fill="none" xmlns="http://www.w3.org/2000/svg">
<path fill-rule="evenodd" clip-rule="evenodd" d="M124.405 14.7824C125.334 16.7303 127.05 18.4091 129.208 18.4091C131.614 18.4091 133.605 16.383 132.919 14.0774C132.375 12.2515 131.513 10.5477 130.333 8.96591C128.288 6.19318 125.515 4.01136 122.015 2.42045C118.515 0.806818 114.515 0 110.015 0C105.56 0 101.526 0.818182 97.9127 2.45455C94.3217 4.06818 91.4581 6.34091 89.3217 9.27273C87.2081 12.1818 86.1513 15.5909 86.1513 19.5C86.1513 24.2045 87.7422 28.0114 90.924 30.9205C94.1058 33.8295 98.424 36.0682 103.879 37.6364L112.469 40.0909C114.924 40.7727 117.208 41.5682 119.322 42.4773C121.435 43.3864 123.14 44.5682 124.435 46.0227C125.731 47.4773 126.379 49.3636 126.379 51.6818C126.379 54.2273 125.629 56.4545 124.129 58.3636C122.629 60.25 120.594 61.7273 118.026 62.7955C115.458 63.8409 112.56 64.3636 109.333 64.3636C106.56 64.3636 103.969 63.9545 101.56 63.1364C99.174 62.2955 97.1967 61.0227 95.6286 59.3182C94.9212 58.5276 94.352 57.6419 93.9207 56.6609C93.0055 54.5788 91.2231 52.7727 88.9487 52.7727C86.4055 52.7727 84.3407 54.9607 85.0783 57.3946C85.1605 57.6659 85.2483 57.9342 85.3418 58.1996L64.7727 2.18176L3.75 2.18177C1.67893 2.18177 0 3.8607 0 5.93177C0 8.00283 1.67894 9.68177 3.75 9.68177H10.9773C17.0399 9.68177 21.9545 14.5965 21.9545 20.659V63.5454C21.9545 68.2147 25.7398 72 30.4091 72C35.7226 71.9999 40.4604 68.6543 42.2379 63.647L46.2918 52.2272H46.2955H74.5227H74.5264L80.5664 69.2419C81.1533 70.8953 82.7177 71.9999 84.4721 71.9999C87.3538 71.9999 89.356 69.1319 88.3627 66.4268L85.5133 58.6666C86.0796 60.1479 86.8264 61.5355 87.7536 62.8295C89.8445 65.7159 92.7081 67.9659 96.3445 69.5796C100.004 71.1932 104.333 72 109.333 72C114.697 72 119.254 71.1023 123.004 69.3068C126.776 67.5114 129.64 65.0909 131.594 62.0455C133.572 59 134.56 55.5909 134.56 51.8182V68.0455C134.56 70.3801 136.453 72.2728 138.788 72.2728C141.122 72.2728 143.015 70.3801 143.015 68.0455V52.7467C143.015 50.7431 143.75 48.8092 145.081 47.3117C148.521 43.4417 154.646 43.7006 157.747 47.8471L174.8 70.6483C175.565 71.6707 176.767 72.2728 178.043 72.2728C181.399 72.2728 183.299 68.4263 181.26 65.7614L163.954 43.1428C159.894 37.8369 160.254 30.3763 164.806 25.4859L179.935 9.23124C182.334 6.65341 180.506 2.45457 176.984 2.45457C175.846 2.45457 174.761 2.93594 173.997 3.77976L144.002 36.9046C143.894 37.0233 143.742 37.091 143.582 37.091C143.269 37.091 143.015 36.8372 143.015 36.5242V6.68185C143.015 4.34719 141.122 2.45457 138.788 2.45457C136.453 2.45457 134.56 4.3472 134.56 6.68186V51.8182C134.56 48.5455 133.89 45.7841 132.549 43.5341C131.208 41.2841 129.504 39.4432 127.435 38.0114C125.39 36.5568 123.242 35.4091 120.992 34.5682C118.765 33.7273 116.742 33.0682 114.924 32.5909L107.833 30.6818C106.538 30.3409 105.117 29.8977 103.572 29.3523C102.026 28.7841 100.549 28.0682 99.1399 27.2045C97.7308 26.3182 96.5717 25.2159 95.6627 23.8977C94.7763 22.5568 94.3331 20.9545 94.3331 19.0909C94.3331 16.8636 94.9695 14.875 96.2422 13.125C97.5377 11.375 99.3331 10 101.629 9C103.947 8 106.651 7.5 109.742 7.5C113.969 7.5 117.538 8.45455 120.447 10.3636C122.243 11.5421 123.562 13.0151 124.405 14.7824ZM30.4091 72V24.8159C30.4091 16.3948 37.1198 9.50754 45.5381 9.28899L53.5969 9.07976C53.388 9.49693 53.2008 9.92882 53.0373 10.3742L30.4091 72ZM60.7731 13.4842L71.864 44.7272H48.9542L60.0451 13.4842C60.0998 13.3302 60.2456 13.2272 60.4091 13.2272C60.5726 13.2272 60.7184 13.3302 60.7731 13.4842ZM30.4844 74.3636C25.5061 74.3636 21.444 78.3491 21.3492 83.3265L21.0505 99.0085C21.0087 101.201 22.7742 103 24.9666 103C27.1299 103 28.8835 101.246 28.8835 99.0831V86.6067C28.8835 86.2716 29.1552 86 29.4902 86C29.5401 86 29.5898 86.0062 29.6382 86.0183L95.5912 102.609C96.6231 102.869 97.6832 103 98.7473 103C99.6764 103 100.603 102.9 101.511 102.701L177.836 86.0137C177.877 86.0046 177.92 86 177.963 86C178.3 86 178.569 86.2804 178.556 86.6172L178.062 98.9318C177.973 101.152 179.748 103 181.97 103C184.101 103 185.84 101.294 185.881 99.1631L186.179 83.4871C186.275 78.4767 182.239 74.3636 177.228 74.3636C176.586 74.3636 175.946 74.4327 175.319 74.5696L99.7943 91.0549C99.5463 91.1091 99.2932 91.1364 99.0394 91.1364C98.7496 91.1364 98.4609 91.1008 98.1797 91.0304L32.7035 74.6372C31.9778 74.4555 31.2325 74.3636 30.4844 74.3636Z" fill="black"/>
</svg>
